<svg width="61" height="60" viewBox="0 0 61 60" fill="none" xmlns="http://www.w3.org/2000/svg">
<path d="M10.4417 4.76908L10.4427 4.76899L51.2363 1.02224C55.3829 0.696832 59.0012 3.98967 59.0012 8.19503L59.0012 51.814C59.0012 55.9663 55.5061 59.2471 51.4411 58.9853C51.4409 58.9853 51.4407 58.9853 51.4406 58.9853L7.64497 56.0626C3.84673 55.8009 0.950666 52.601 1.0006 48.7893L3.99795 11.7983L4.00048 11.7671L4.00106 11.7357C4.06692 8.11572 6.8329 5.09692 10.4417 4.76908Z" stroke="#3F3C3D" stroke-width="2"/>
<path d="M37.6793 44.9887L25.0793 35.7952C23.2793 34.5961 22.4793 32.5975 22.4793 30.3991C22.4793 28.2006 23.2793 26.202 25.0793 25.0029L37.4793 15.01" stroke="#573BC7" stroke-width="4" stroke-miterlimit="10" stroke-linecap="round"/>
</svg>
