<svg width="206" height="150" viewBox="0 0 206 150" fill="none" xmlns="http://www.w3.org/2000/svg">
<g clip-path="url(#clip0_171_2047)">
<circle cx="104.004" cy="75" r="75" fill="white"/>
<circle cx="16.4988" cy="96.5" r="4.5" fill="white"/>
<circle cx="183.999" cy="8" r="8" fill="white"/>
<circle cx="10.4988" cy="133.5" r="10.5" fill="white"/>
<path d="M112.209 56.0925L86.6631 81.6381L110.675 105.65L136.22 80.1042L112.209 56.0925Z" fill="#F7B64D"/>
<path d="M110.767 108.658C111.518 109.409 112.018 110.493 112.018 111.661C112.018 112.83 111.518 113.914 110.767 114.665C110.016 115.416 108.931 115.917 107.763 115.917C106.595 115.917 105.51 115.416 104.759 114.665L95.7484 105.738L101.756 99.7303L110.767 108.658Z" fill="#FFC982"/>
<path d="M116.774 102.651C117.525 103.401 118.025 104.486 118.025 105.654C118.025 106.822 117.525 107.907 116.774 108.658C116.023 109.409 114.938 109.909 113.77 109.909C112.602 109.909 111.517 109.409 110.767 108.658L101.756 99.6469L107.763 93.6396L116.774 102.651Z" fill="#FFD160"/>
<path d="M116.774 102.651C117.525 103.401 118.025 104.486 118.025 105.654C118.025 106.822 117.525 107.907 116.774 108.658C116.023 109.409 114.938 109.909 113.77 109.909C112.602 109.909 111.517 109.409 110.767 108.658L101.756 99.6469L107.763 93.6396L116.774 102.651Z" fill="#FFC982"/>
<path d="M122.781 96.7266C123.532 97.4775 124.033 98.5622 124.033 99.7303C124.033 100.898 123.532 101.983 122.781 102.734C122.03 103.485 120.946 103.985 119.778 103.985C118.61 103.985 117.525 103.485 116.774 102.734L107.763 93.6395L113.77 87.6322L122.781 96.7266Z" fill="#FFD160"/>
<path d="M122.781 96.7266C123.532 97.4775 124.033 98.5622 124.033 99.7303C124.033 100.898 123.532 101.983 122.781 102.734C122.03 103.485 120.946 103.985 119.778 103.985C118.61 103.985 117.525 103.485 116.774 102.734L107.763 93.6395L113.77 87.6322L122.781 96.7266Z" fill="#FFC982"/>
<path d="M128.789 90.6359C129.54 91.3868 130.04 92.4714 130.04 93.6395C130.04 94.8076 129.54 95.8923 128.789 96.6432C128.038 97.3941 126.953 97.8947 125.785 97.8947C124.617 97.8947 123.532 97.3941 122.781 96.6432L113.771 87.6322L119.778 81.6249L128.789 90.6359Z" fill="#FFC982"/>
<path d="M94.162 56.1098L70.1503 80.1215L95.6959 105.667L119.708 81.6554L94.162 56.1098Z" fill="#FFC982"/>
<path d="M83.7338 96.7266C82.9829 97.4775 81.8982 97.9782 80.7302 97.9782C79.5621 97.9782 78.4774 97.4775 77.7265 96.7266C76.9756 95.9757 76.475 94.8911 76.475 93.723C76.475 92.5549 76.9756 91.4702 77.7265 90.7193L80.8136 87.6322C81.5645 86.8813 82.6492 86.3807 83.8172 86.3807C84.9853 86.3807 86.07 86.8813 86.8209 87.6322C87.5718 88.3831 88.0724 89.4678 88.0724 90.6359C88.0724 91.804 87.5718 92.8886 86.8209 93.6395L83.7338 96.7266Z" fill="#F7B64D"/>
<path d="M89.7413 102.65C88.9904 103.401 87.9058 103.902 86.7377 103.902C85.5696 103.902 84.4849 103.401 83.734 102.65C82.9831 101.9 82.4825 100.815 82.4825 99.6468C82.4825 98.4787 82.9831 97.3941 83.734 96.6431L86.8211 93.5561C87.572 92.8051 88.6567 92.3045 89.8248 92.3045C90.9928 92.3045 92.0775 92.8051 92.8284 93.5561C93.5793 94.307 94.0799 95.3916 94.0799 96.5597C94.0799 97.7278 93.5793 98.8125 92.8284 99.5634L89.7413 102.65Z" fill="#F7B64D"/>
<path d="M95.7485 108.741C94.9976 109.492 93.913 109.993 92.7449 109.993C91.5768 109.993 90.4921 109.492 89.7412 108.741C88.9903 107.99 88.4897 106.906 88.4897 105.738C88.4897 104.569 88.9903 103.485 89.7412 102.734L92.8283 99.6468C93.5792 98.8959 94.6639 98.3952 95.832 98.3952C97 98.3952 98.0847 98.8959 98.8356 99.6468C99.5865 100.398 100.087 101.482 100.087 102.65C100.087 103.819 99.5865 104.903 98.8356 105.654L95.7485 108.741Z" fill="#F7B64D"/>
<path d="M101.756 114.749C101.005 115.499 99.9204 116 98.7523 116C97.5842 116 96.4996 115.499 95.7487 114.749C94.9977 113.998 94.4971 112.913 94.4971 111.745C94.4971 110.577 94.9977 109.492 95.7487 108.741L98.8357 105.654C99.5867 104.903 100.671 104.403 101.839 104.403C103.007 104.403 104.092 104.903 104.843 105.654C105.594 106.405 106.095 107.49 106.095 108.658C106.095 109.826 105.594 110.911 104.843 111.661L101.756 114.749Z" fill="#F7B64D"/>
<path d="M98.7521 81.6249C98.0012 82.3758 96.9166 82.8765 95.7485 82.8765C94.5804 82.8765 93.4957 82.3758 92.7448 81.6249C91.9939 80.874 91.4933 79.7894 91.4933 78.6213C91.4933 77.4532 91.9939 76.3685 92.7448 75.6176L103.258 65.1048L109.265 71.1121L98.7521 81.6249Z" fill="#F7B64D"/>
<path d="M92.5781 52.9233L67.047 78.4544L69.4666 80.874L94.9977 55.3429L92.5781 52.9233Z" fill="white"/>
<path d="M77.5612 34.8992L49.0107 63.4576L65.5322 79.9744L94.0826 51.4159L77.5612 34.8992Z" fill="#D0CAFC"/>
<path d="M68.1316 70.6115C68.1316 72.0299 66.9636 73.198 65.5452 73.198C64.1268 73.198 62.9587 72.0299 62.9587 70.6115C62.9587 69.1931 64.1268 68.025 65.5452 68.025C66.9636 68.1085 68.1316 69.1931 68.1316 70.6115Z" fill="white"/>
<path d="M139.468 78.4544L113.937 52.9233L111.518 55.3429L137.049 80.874L139.468 78.4544Z" fill="white"/>
<path d="M128.936 34.8876L112.414 51.4043L140.965 79.9628L157.486 63.4461L128.936 34.8876Z" fill="#FBACC0"/>
<path d="M143.473 70.6115C143.473 72.0299 142.305 73.198 140.887 73.198C139.468 73.198 138.3 72.0299 138.3 70.6115C138.3 69.1931 139.468 68.025 140.887 68.025C142.388 68.1085 143.473 69.1931 143.473 70.6115Z" fill="white"/>
</g>
<defs>
<clipPath id="clip0_171_2047">
<rect width="206" height="150" fill="white"/>
</clipPath>
</defs>
</svg>
