<svg width="206" height="150" viewBox="0 0 206 150" fill="none" xmlns="http://www.w3.org/2000/svg">
<circle cx="103.999" cy="75" r="75" fill="white"/>
<circle cx="36.0024" cy="7" r="7" fill="white"/>
<circle cx="191.002" cy="32" r="12" fill="white"/>
<circle cx="16.0012" cy="36" r="16" fill="white"/>
<path d="M137.204 121H65.2552V29H122.057C127.926 34.9417 131.334 38.3917 137.204 44.3333V121Z" fill="#D0CAFC"/>
<path d="M121.871 29V44.3333H137.204C131.262 38.3917 127.812 34.9417 121.871 29Z" fill="#A798E2"/>
<path d="M148.999 43.7972L145.46 36.0769L141.922 43.7972V121H148.999V43.7972Z" fill="#FBACC0"/>
<path d="M145.46 36.0769L141.922 43.7436H148.999L145.46 36.0769Z" fill="#FFC982"/>
<path d="M130.127 47.8718H72.3321V63.2051H130.127V47.8718Z" fill="#A798E2"/>
<path d="M148.999 112.744H139.415C137.882 112.744 136.349 112.169 135.39 111.019C134.24 110.06 133.665 108.527 133.665 106.994V82.0769H137.499V106.994C137.499 107.569 137.69 107.952 138.074 108.335C138.457 108.719 138.84 108.91 139.415 108.91H148.999V112.744Z" fill="#A798E2"/>
<path d="M78.2295 105.667H66.4347C64.862 105.667 63.2894 105.092 62.3065 103.942C61.127 102.983 60.5372 101.45 60.5372 99.9167V96.0833C60.5372 94.55 61.127 93.0167 62.3065 92.0583C63.2894 90.9083 64.862 90.3333 66.4347 90.3333H78.2295C79.8022 90.3333 81.3748 90.9083 82.3578 92.0583C83.5372 93.2083 84.127 94.55 84.127 96.0833V99.9167C84.127 101.45 83.5372 102.983 82.3578 103.942C81.3748 105.092 79.8022 105.667 78.2295 105.667ZM66.4347 94.1667C65.8449 94.1667 65.4518 94.3583 65.0586 94.7417C64.6654 95.125 64.4689 95.5083 64.4689 96.0833V99.9167C64.4689 100.492 64.6654 100.875 65.0586 101.258C65.4518 101.642 65.8449 101.833 66.4347 101.833H78.2295C78.8193 101.833 79.2125 101.642 79.6056 101.258C79.9988 100.875 80.1954 100.492 80.1954 99.9167V96.0833C80.1954 95.5083 79.9988 95.125 79.6056 94.7417C79.2125 94.3583 78.8193 94.1667 78.2295 94.1667H66.4347Z" fill="#A798E2"/>
<path d="M105.358 105.667H93.5629C91.9902 105.667 90.4176 105.092 89.4347 103.942C88.2552 102.983 87.6654 101.45 87.6654 99.9167V96.0833C87.6654 94.55 88.2552 93.0167 89.4347 92.0583C90.6142 90.9083 91.9902 90.3333 93.5629 90.3333H105.358C106.93 90.3333 108.503 90.9083 109.486 92.0583C110.665 93.2083 111.255 94.55 111.255 96.0833V99.9167C111.255 101.45 110.665 102.983 109.486 103.942C108.503 105.092 106.93 105.667 105.358 105.667ZM93.5629 94.1667C92.9731 94.1667 92.58 94.3583 92.1868 94.7417C91.7937 95.125 91.5971 95.5083 91.5971 96.0833V99.9167C91.5971 100.492 91.7937 100.875 92.1868 101.258C92.58 101.642 92.9731 101.833 93.5629 101.833H105.358C105.947 101.833 106.341 101.642 106.734 101.258C107.127 100.875 107.324 100.492 107.324 99.9167V96.0833C107.324 95.5083 107.127 95.125 106.734 94.7417C106.341 94.3583 105.947 94.1667 105.358 94.1667H93.5629Z" fill="#A798E2"/>
<path d="M62.8962 96.2308H56.9988V99.7692H62.8962V96.2308Z" fill="#A798E2"/>
<path d="M114.794 96.2308H108.896V99.7692H114.794V96.2308Z" fill="#A798E2"/>
<path d="M90.0244 96.2308H81.768V99.7692H90.0244V96.2308Z" fill="#A798E2"/>
<path d="M75.8706 40.7949H72.3321V44.3333H75.8706V40.7949Z" fill="#A798E2"/>
<path d="M84.127 40.7949H80.5885V44.3333H84.127V40.7949Z" fill="#A798E2"/>
<path d="M91.2039 40.7949H87.6654V44.3333H91.2039V40.7949Z" fill="#A798E2"/>
<path d="M120.691 66.7436H72.3321V71.4615H120.691V66.7436Z" fill="#A798E2"/>
<path d="M106.537 75H72.3321V78.5385H106.537V75Z" fill="#A798E2"/>
<path d="M130.127 75H111.255V78.5385H130.127V75Z" fill="#A798E2"/>
<path d="M93.5629 82.0769H72.3321V86.7949H93.5629V82.0769Z" fill="#A798E2"/>
<path d="M130.127 82.0769H97.1013V86.7949H130.127V82.0769Z" fill="#A798E2"/>
<path d="M130.127 109.205H111.255V112.744H130.127V109.205Z" fill="#A798E2"/>
<path d="M141.922 43.7436H148.999V46.6923H141.922V43.7436Z" fill="white"/>
</svg>
