<svg width="206" height="150" viewBox="0 0 206 150" fill="none" xmlns="http://www.w3.org/2000/svg">
<circle cx="104.004" cy="75" r="75" fill="white"/>
<circle cx="33.4988" cy="16.5" r="8.5" fill="white"/>
<circle cx="7" cy="7" r="7" transform="matrix(-1 0 0 1 175.999 131)" fill="white"/>
<circle cx="192.999" cy="128" r="13" fill="white"/>
<g clip-path="url(#clip0_171_2048)">
<path d="M124.427 63.6762C123.699 59.3994 121.425 55.3046 117.876 52.3017C114.236 49.2988 109.869 47.8429 105.501 47.8429H85.3919C81.0243 47.8429 76.6567 49.2988 73.017 52.3017C69.3773 55.3046 67.1935 59.3994 66.4656 63.6762L59.8232 101.167C59.5502 102.532 59.1862 103.897 58.6403 105.261C58.0943 106.626 57.3664 107.809 56.5475 108.992L53.4537 113.36C52.9988 113.997 52.9078 114.998 53.2718 115.726C53.7267 116.545 54.4547 117 55.3646 117H135.619C136.438 117 137.257 116.545 137.712 115.726C138.076 114.907 137.985 113.997 137.53 113.36L134.436 108.992C133.618 107.9 132.981 106.626 132.344 105.261C131.798 103.897 131.434 102.532 131.161 101.167L124.427 63.6762Z" fill="#E6EAEE"/>
<path d="M95.401 67.4071C87.1207 67.4071 80.3873 74.1408 80.3873 82.4215C80.3873 90.7021 87.1207 97.4358 95.401 97.4358C103.681 97.4358 110.415 90.7021 110.415 82.4215C110.415 74.1408 103.681 67.4071 95.401 67.4071ZM96.6749 90.7021V92.2491C96.6749 92.613 96.5839 92.886 96.3109 93.159C96.0379 93.432 95.7649 93.523 95.492 93.523H95.219C94.946 93.523 94.5821 93.432 94.4001 93.159C94.1271 92.886 94.0361 92.613 94.0361 92.2491V90.8841C92.2163 90.7931 90.3964 90.3381 89.3955 89.7012L90.2144 86.5163C91.3973 87.1533 92.9442 87.6992 94.764 87.6992C96.3109 87.6992 97.4028 87.0623 97.4028 85.9703C97.4028 84.9694 96.4929 84.2414 94.4911 83.6044C91.5793 82.6035 89.5775 81.2385 89.5775 78.5996C89.5775 76.2337 91.3063 74.3228 94.2181 73.7768V72.4119C94.2181 72.1389 94.3091 71.7749 94.5821 71.5929C94.764 71.3199 95.128 71.2289 95.401 71.2289H95.674C95.9469 71.2289 96.3109 71.3199 96.5839 71.5929C96.8568 71.7749 96.9478 72.1389 96.9478 72.4119V73.5948C98.7677 73.6858 100.042 74.0498 100.86 74.5048L100.042 77.5987C99.3136 77.3257 98.1307 76.6887 96.1289 76.6887C94.4001 76.6887 93.7631 77.4167 93.7631 78.2356C93.7631 79.1456 94.764 79.6916 97.0388 80.6015C100.315 81.7845 101.588 83.2404 101.588 85.6973C101.497 88.0632 99.7686 90.1561 96.6749 90.7021Z" fill="#FFC982"/>
<path d="M111.507 30.0077C111.507 30.6446 111.325 31.1906 111.143 31.7366L110.688 32.4646C110.688 32.4646 110.688 32.4646 110.688 32.5556L107.412 37.7424C106.775 38.8343 105.774 39.7443 104.591 40.3812C103.408 41.0182 102.134 41.3822 100.86 41.3822H90.1234C88.8496 41.3822 87.5757 41.1092 86.3928 40.3812C85.2099 39.7443 84.3 38.8343 83.572 37.7424L80.2963 32.4646L79.8414 31.7366C79.5684 31.1906 79.3864 30.6446 79.3864 30.0077C79.3864 27.8238 81.2063 26.0038 83.3901 26.0038C85.5739 26.0038 87.3937 27.8238 87.3937 30.0077C87.3937 27.8238 89.2135 26.0038 91.3973 26.0038C93.5811 26.0038 95.401 27.8238 95.401 30.0077C95.401 27.8238 97.2208 26.0038 99.4046 26.0038C101.588 26.0038 103.408 27.8238 103.408 30.0077C103.408 27.8238 105.228 26.0038 107.412 26.0038C109.687 26.0038 111.507 27.8238 111.507 30.0077Z" fill="#E6EAEE"/>
<path d="M105.046 40.1082H85.8468V47.8429H105.046V40.1082Z" fill="#FFC982"/>
<path d="M152.635 41.3822L133.618 22.364C133.163 21.909 132.344 21.909 131.889 22.364L112.871 41.3822C112.143 42.1101 112.689 43.4751 113.69 43.4751H125.974V101.895C125.974 103.351 127.157 104.443 128.522 104.443H136.802C138.258 104.443 139.35 103.26 139.35 101.895V43.3841H151.634C152.817 43.3841 153.363 42.1101 152.635 41.3822Z" fill="#FBACC0"/>
</g>
<defs>
<clipPath id="clip0_171_2048">
<rect width="100" height="95" fill="white" transform="translate(52.9988 22)"/>
</clipPath>
</defs>
</svg>
