<svg width="35" height="35" viewBox="0 0 35 35" fill="none" xmlns="http://www.w3.org/2000/svg">
<rect width="35" height="35" rx="17.5" fill="#573BC7"/>
<path d="M26.8692 25.5008C25.6866 25.4727 24.5321 25.4727 23.3495 25.5008C23.096 25.5008 23.0397 25.4445 23.0397 25.1911C23.0397 23.1074 23.0397 20.9956 23.0397 18.9119C23.0397 18.4332 23.0116 17.9545 22.8708 17.504C22.4484 16.0398 20.7589 15.5048 19.5481 16.4903C18.9005 16.9971 18.6471 17.7011 18.6471 18.5458C18.6471 20.5169 18.6471 22.4879 18.6471 24.459C18.6471 24.7124 18.6189 24.9658 18.6471 25.2474C18.6753 25.4727 18.5626 25.529 18.3655 25.5008C17.1547 25.5008 15.9721 25.5008 14.7613 25.5008C14.5361 25.5008 14.4797 25.4445 14.4797 25.2192C14.5079 23.4453 14.5079 21.6713 14.5079 19.8692C14.5079 17.6729 14.5079 15.4766 14.4797 13.3085C14.4797 13.055 14.5361 12.9987 14.7613 12.9987C15.9721 12.9987 17.1547 12.9987 18.3655 12.9987C18.5908 12.9987 18.6471 13.055 18.6471 13.2803C18.6471 13.7308 18.6471 14.1814 18.6471 14.7164C18.7316 14.6319 18.7597 14.6037 18.7879 14.5756C19.886 12.9706 21.4347 12.5201 23.265 12.8016C25.3768 13.1395 26.7284 14.6037 27.0663 16.8564C27.1508 17.3914 27.1789 17.9264 27.1789 18.4614C27.1789 20.714 27.1789 22.9384 27.1789 25.1911C27.1789 25.4163 27.1226 25.5008 26.8692 25.5008Z" fill="#EEEEEE"/>
<path d="M12.2271 19.2496C12.2271 21.2206 12.2271 23.1917 12.2271 25.1627C12.2271 25.4161 12.1708 25.5006 11.9174 25.5006C10.7348 25.4725 9.55213 25.5006 8.3695 25.5006C8.14424 25.5006 8.08792 25.4443 8.08792 25.219C8.08792 21.2488 8.08792 17.2504 8.08792 13.2801C8.08792 13.083 8.14424 12.9985 8.3695 12.9985C9.58029 12.9985 10.7911 12.9985 12.0019 12.9985C12.2553 12.9985 12.2834 13.083 12.2834 13.3083C12.2271 15.2793 12.2271 17.2504 12.2271 19.2496Z" fill="#EEEEEE"/>
<path d="M12.4242 9.73239C12.1426 10.8587 10.9882 11.5063 9.66476 11.2811C8.25686 11.0558 7.46844 9.67608 7.97529 8.3245C8.31318 7.47977 9.12976 6.97293 10.1716 7.00108C11.7484 6.97293 12.7903 8.24003 12.4242 9.73239Z" fill="#EEEEEE"/>
</svg>
