<svg width="306" height="240" viewBox="0 0 306 240" fill="none" xmlns="http://www.w3.org/2000/svg">
<g clip-path="url(#clip0_105_39)">
<path opacity="0.7" fill-rule="evenodd" clip-rule="evenodd" d="M126.346 22.053C158.364 22.053 184.345 48.0861 184.345 80.1435C184.345 112.201 158.364 138.234 126.346 138.234C94.3284 138.234 68.3477 112.201 68.3477 80.1435C68.3477 48.0861 94.2206 22.053 126.346 22.053Z" fill="#573BC7"/>
<path opacity="0.9" fill-rule="evenodd" clip-rule="evenodd" d="M155.345 35.0696C195.017 35.0696 227.143 67.3421 227.143 107.145C227.143 146.948 195.017 179.22 155.345 179.22C115.674 179.22 83.548 146.948 83.548 107.145C83.548 67.3421 115.674 35.0696 155.345 35.0696Z" fill="#FFC982"/>
<path opacity="0.5" fill-rule="evenodd" clip-rule="evenodd" d="M197.065 98.2161C219.381 98.2161 237.492 116.396 237.492 138.772C237.492 161.147 219.381 179.328 197.065 179.328C174.75 179.328 156.639 161.147 156.639 138.772C156.639 116.396 174.75 98.2161 197.065 98.2161Z" fill="#573BC7"/>
<path opacity="0.7" fill-rule="evenodd" clip-rule="evenodd" d="M188.441 34.9619C213.344 34.9619 233.503 55.186 233.503 80.1434C233.503 105.101 213.344 125.325 188.441 125.325C163.538 125.325 143.379 105.101 143.379 80.1434C143.271 55.186 163.538 34.9619 188.441 34.9619Z" fill="#FD8CA9"/>
<path fill-rule="evenodd" clip-rule="evenodd" d="M170.33 0C176.259 0 181.11 4.84088 181.11 10.7575C181.11 16.6741 176.259 21.515 170.33 21.515C164.401 21.515 159.55 16.6741 159.55 10.7575C159.55 4.84088 164.401 0 170.33 0Z" fill="#D0CAFC"/>
<path fill-rule="evenodd" clip-rule="evenodd" d="M269.294 84.769C276.732 84.769 282.769 90.7932 282.769 98.2159C282.769 105.639 276.732 111.663 269.294 111.663C261.855 111.663 255.818 105.639 255.818 98.2159C255.818 90.7932 261.855 84.769 269.294 84.769Z" fill="#A798E2"/>
<path fill-rule="evenodd" clip-rule="evenodd" d="M246.224 114.567C249.242 114.567 251.614 116.934 251.614 119.946C251.614 122.958 249.242 125.325 246.224 125.325C243.205 125.325 240.834 122.958 240.834 119.946C240.834 116.934 243.313 114.567 246.224 114.567Z" fill="#D0CAFC"/>
<path fill-rule="evenodd" clip-rule="evenodd" d="M29.2148 99.9373C32.2333 99.9373 34.605 102.304 34.605 105.316C34.605 108.328 32.2333 110.695 29.2148 110.695C26.1963 110.695 23.8246 108.328 23.8246 105.316C23.8246 102.304 26.1963 99.9373 29.2148 99.9373Z" fill="#573BC7"/>
<path fill-rule="evenodd" clip-rule="evenodd" d="M55.4112 119.946C59.2921 119.946 62.4184 123.066 62.4184 126.939C62.4184 130.811 59.2921 133.931 55.4112 133.931C51.5302 133.931 48.4039 130.811 48.4039 126.939C48.4039 123.066 51.5302 119.946 55.4112 119.946Z" fill="#FD8CA9"/>
<path fill-rule="evenodd" clip-rule="evenodd" d="M186.393 137.588H125.591C118.692 137.588 112.978 131.995 112.978 125.002V91.116C112.978 84.2312 118.584 78.5297 125.591 78.5297H186.393C193.292 78.5297 199.006 84.1236 199.006 91.116V125.002C198.898 131.995 193.292 137.588 186.393 137.588Z" fill="#3F3C3D"/>
<path fill-rule="evenodd" clip-rule="evenodd" d="M153.836 68.2025C158.256 68.2025 161.921 71.7525 161.921 76.2707C156.962 76.2707 152.434 76.2707 145.751 76.2707C145.858 71.7525 149.416 68.2025 153.836 68.2025Z" fill="#3F3C3D"/>
<path d="M163.969 70.7843C163.646 70.7843 163.323 70.6768 163.107 70.354C162.676 69.9237 162.784 69.1707 163.215 68.848L171.947 61.4253C172.378 60.995 173.133 61.1026 173.456 61.5329C173.887 61.9632 173.78 62.7162 173.348 63.0389L164.616 70.4616C164.508 70.6768 164.293 70.7843 163.969 70.7843Z" fill="#3F3C3D"/>
<path d="M143.163 73.2586C142.948 73.2586 142.84 73.2586 142.624 73.151L134 68.095C133.461 67.7722 133.353 67.1268 133.569 66.5889C133.892 66.051 134.539 65.9435 135.078 66.1586L143.702 71.2146C144.241 71.5374 144.349 72.1828 144.134 72.7207C143.918 73.0434 143.487 73.2586 143.163 73.2586Z" fill="#3F3C3D"/>
<path d="M284.818 240C284.71 240 284.602 240 284.494 240L21.6686 234.729C13.7989 234.621 7.33065 228.597 6.57603 220.744L-5.58794e-06 148.991C-0.431221 144.688 1.07803 140.385 3.98873 137.266C6.89944 134.038 11.1038 132.21 15.4159 132.21H39.9952C40.642 132.21 41.0732 132.64 41.0732 133.285C41.0732 133.931 40.642 134.361 39.9952 134.361H15.4159C11.7506 134.361 8.08528 135.975 5.60579 138.664C3.1263 141.354 1.83266 145.119 2.15607 148.776L8.8399 220.529C9.48673 227.199 14.9847 232.362 21.7764 232.577L284.602 237.848C284.71 237.848 284.818 237.848 284.925 237.848C291.933 237.848 297.646 232.47 298.185 225.477L303.252 148.561C303.468 144.904 302.282 141.354 299.695 138.664C297.215 135.975 293.765 134.469 289.992 134.469H267.246C266.599 134.469 266.168 134.038 266.168 133.393C266.168 132.748 266.599 132.317 267.246 132.317H289.992C294.304 132.317 298.293 134.038 301.204 137.158C304.114 140.278 305.624 144.366 305.3 148.669L300.234 225.585C299.695 233.653 293.011 240 284.818 240Z" fill="#3F3C3D"/>
<path d="M165.802 130.811H128.394C124.082 130.811 120.525 127.261 120.525 122.958V93.5903C120.525 89.2873 124.082 85.7373 128.394 85.7373H165.802C170.114 85.7373 173.672 89.2873 173.672 93.5903V122.851C173.78 127.261 170.222 130.811 165.802 130.811ZM128.502 87.8888C125.376 87.8888 122.788 90.4706 122.788 93.5903V122.851C122.788 125.97 125.376 128.552 128.502 128.552H165.91C169.036 128.552 171.624 125.97 171.624 122.851V93.5903C171.624 90.4706 169.036 87.8888 165.91 87.8888H128.502Z" fill="white"/>
<path d="M143.81 114.567C143.056 114.567 142.409 114.352 141.762 114.03C140.253 113.169 139.39 111.663 139.39 109.942V99.7221C139.39 97.8933 140.253 96.3872 141.762 95.6342C143.271 94.7736 144.996 94.9888 146.397 96.0645L153.189 101.336C154.375 102.304 155.022 103.595 154.914 105.101C154.914 106.607 154.267 108.005 152.973 108.866L146.182 113.814C145.535 114.245 144.673 114.567 143.81 114.567ZM143.81 97.1403C143.487 97.1403 143.163 97.2478 142.84 97.3554C142.085 97.7857 141.546 98.6463 141.546 99.6145V109.834C141.546 110.802 141.977 111.663 142.732 112.093C143.487 112.523 144.349 112.524 144.996 111.986L151.788 107.037C152.434 106.607 152.758 105.854 152.758 104.993C152.758 104.133 152.434 103.38 151.788 102.949L144.996 97.6781C144.673 97.2478 144.241 97.1403 143.81 97.1403Z" fill="white"/>
<path d="M166.88 122.851H127.316C126.669 122.851 126.238 122.42 126.238 121.775C126.238 121.13 126.669 120.699 127.316 120.699H166.88C167.527 120.699 167.958 121.13 167.958 121.775C167.958 122.42 167.527 122.851 166.88 122.851Z" fill="white"/>
<path d="M133.784 125.325C135.63 125.325 137.126 123.832 137.126 121.99C137.126 120.148 135.63 118.655 133.784 118.655C131.939 118.655 130.442 120.148 130.442 121.99C130.442 123.832 131.939 125.325 133.784 125.325Z" fill="#3F3C3D"/>
<path d="M133.784 126.508C131.305 126.508 129.364 124.572 129.364 122.098C129.364 119.623 131.305 117.687 133.784 117.687C136.264 117.687 138.204 119.623 138.204 122.098C138.204 124.572 136.264 126.508 133.784 126.508ZM133.784 119.731C132.491 119.731 131.521 120.699 131.521 121.99C131.521 123.281 132.491 124.249 133.784 124.249C135.078 124.249 136.048 123.281 136.048 121.99C136.048 120.807 135.078 119.731 133.784 119.731Z" fill="white"/>
<path d="M184.344 99.2918C186.964 99.2918 189.088 97.1726 189.088 94.5585C189.088 91.9443 186.964 89.8252 184.344 89.8252C181.725 89.8252 179.601 91.9443 179.601 94.5585C179.601 97.1726 181.725 99.2918 184.344 99.2918Z" fill="#3F3C3D"/>
<path d="M184.344 100.26C181.11 100.26 178.523 97.6781 178.523 94.4509C178.523 91.2236 181.11 88.6418 184.344 88.6418C187.578 88.6418 190.166 91.2236 190.166 94.4509C190.058 97.6781 187.471 100.26 184.344 100.26ZM184.344 90.9009C182.296 90.9009 180.679 92.5145 180.679 94.5585C180.679 96.6024 182.296 98.216 184.344 98.216C186.393 98.216 188.01 96.6024 188.01 94.5585C187.902 92.5145 186.285 90.9009 184.344 90.9009Z" fill="white"/>
<path d="M184.344 114.245C186.964 114.245 189.088 112.126 189.088 109.511C189.088 106.897 186.964 104.778 184.344 104.778C181.725 104.778 179.601 106.897 179.601 109.511C179.601 112.126 181.725 114.245 184.344 114.245Z" fill="#3F3C3D"/>
<path d="M184.344 115.213C181.11 115.213 178.523 112.631 178.523 109.404C178.523 106.177 181.11 103.595 184.344 103.595C187.578 103.595 190.166 106.177 190.166 109.404C190.166 112.631 187.471 115.213 184.344 115.213ZM184.344 105.854C182.296 105.854 180.679 107.467 180.679 109.511C180.679 111.555 182.296 113.169 184.344 113.169C186.393 113.169 188.01 111.555 188.01 109.511C187.902 107.467 186.285 105.854 184.344 105.854Z" fill="white"/>
<path d="M188.98 122.851H179.601C178.954 122.851 178.523 122.42 178.523 121.775C178.523 121.13 178.954 120.699 179.601 120.699H188.98C189.627 120.699 190.058 121.13 190.058 121.775C190.058 122.42 189.627 122.851 188.98 122.851Z" fill="white"/>
<path d="M30.2928 196.002C33.7426 190.193 46.679 178.897 49.9131 174.057C45.8166 175.132 42.0435 176.746 37.9469 176.638C33.9582 176.531 29.9694 175.24 28.9992 171.582C28.1368 168.678 29.7538 166.419 32.5567 166.526C36.0064 166.634 39.564 165.773 42.9059 164.805C45.8166 163.944 48.8351 163.084 51.7458 162.331C52.8238 162.008 53.7941 161.901 54.6565 161.901C59.5077 161.901 61.8793 166.204 58.753 171.797C53.5785 180.511 43.5527 189.978 37.5157 198.153C40.2108 196.862 45.601 195.249 50.2365 195.249C54.4409 195.249 58.1062 196.647 58.9687 200.628C59.6155 204.178 56.3814 205.146 53.5785 204.608C51.3146 203.962 49.0507 203.855 46.7868 203.855C41.6122 203.855 36.4377 204.931 31.6943 204.931C31.0475 205.038 30.5084 204.715 30.0772 204.393C27.0587 202.672 28.8914 198.261 30.2928 196.002Z" fill="#3F3C3D"/>
<path d="M68.9944 206.867C64.8979 206.867 62.3106 204.285 62.8496 199.122C63.9276 189.978 64.0354 172.228 63.173 167.387C62.5262 163.837 66.0837 161.793 69.4256 161.793C74.708 161.793 80.6372 163.299 85.2728 165.881C86.4586 166.526 87.2132 167.494 87.6445 168.785C88.5069 171.582 86.6742 174.164 83.6557 174.379C82.4699 174.487 81.3918 174.057 80.206 173.841C77.6187 173.304 75.1392 172.443 72.6597 172.443C72.4441 176.208 72.2285 179.973 72.1207 183.846C74.169 183.953 76.0016 184.061 77.8343 184.169C80.206 184.276 84.6259 185.244 83.8713 188.472C83.1167 191.376 80.3138 191.591 78.0499 191.591C76.0016 191.484 73.3066 191.376 72.2285 191.376C72.0129 193.635 71.9051 195.787 71.6895 198.153C72.4441 197.938 72.9831 197.831 73.4144 197.723C75.5704 197.185 78.5889 196.432 80.745 196.109C83.1167 195.679 85.8118 196.325 86.4586 198.799C86.8898 200.412 86.782 202.134 85.2728 202.994C81.6074 204.715 74.708 206.006 70.9349 206.759C70.288 206.867 69.6412 206.867 68.9944 206.867Z" fill="#3F3C3D"/>
<path d="M92.28 163.837C96.1609 161.363 100.473 160.395 104.462 160.395C106.51 160.395 108.558 160.717 110.283 161.255C122.142 164.805 124.513 178.037 120.417 186.966C118.369 191.484 113.41 195.464 108.127 195.464C105.863 195.464 103.599 194.711 101.551 193.097C101.336 194.388 101.443 196.97 101.551 199.122C101.659 200.412 101.443 201.488 101.336 202.349C100.797 205.038 98.6404 206.329 96.3766 206.329C94.3283 206.329 92.28 205.146 91.741 202.779C91.6332 202.134 91.5254 201.381 91.6332 200.52C92.28 192.022 92.9268 183.953 91.202 173.841C90.8786 172.12 90.4474 170.829 89.9083 169.969C88.1835 167.279 90.0161 165.235 92.28 163.837ZM103.923 167.817C102.629 167.817 101.443 168.14 100.15 168.57C100.473 173.196 101.12 177.499 101.228 181.91C101.336 185.567 103.168 187.503 105.216 187.503C105.648 187.503 106.187 187.396 106.618 187.181C110.499 185.675 112.547 179.005 111.577 174.057C110.822 169.969 107.48 167.817 103.923 167.817Z" fill="#3F3C3D"/>
<path d="M128.826 166.741C130.335 164.052 132.491 162.761 134.323 162.761C136.587 162.761 138.42 164.698 138.097 168.247C137.126 173.626 135.941 178.575 135.402 183.738H143.81C143.702 181.479 143.487 174.272 144.996 169.216C146.074 165.451 148.769 163.729 151.141 163.729C153.944 163.729 156.531 166.204 155.669 170.507C153.728 179.866 152.542 193.097 152.542 200.628C152.65 203.962 150.71 206.006 148.877 206.006C148.338 206.006 147.799 205.791 147.368 205.468C144.026 202.887 144.673 196.432 144.349 192.022H134.755C134.216 195.894 134.323 198.476 134.323 201.273C134.323 203.425 133.245 206.544 130.658 206.544C129.257 206.544 127.855 205.576 127.101 204.07C123.004 196.109 124.513 174.379 128.826 166.741Z" fill="#3F3C3D"/>
<path d="M164.94 206.867C160.843 206.867 158.256 204.285 158.795 199.122C159.873 189.978 159.981 172.228 159.118 167.387C158.472 163.837 162.029 161.793 165.371 161.793C170.653 161.793 176.583 163.299 181.218 165.881C182.404 166.526 183.159 167.494 183.59 168.785C184.452 171.582 182.62 174.164 179.601 174.379C178.415 174.487 177.337 174.057 176.151 173.841C173.564 173.304 171.085 172.443 168.605 172.443C168.389 176.208 168.174 179.973 168.066 183.846C170.114 183.953 171.947 184.061 173.78 184.169C176.151 184.276 180.571 185.244 179.817 188.472C179.062 191.376 176.259 191.591 173.995 191.591C171.947 191.484 169.252 191.376 168.174 191.376C167.958 193.635 167.85 195.787 167.635 198.153C168.389 197.938 168.929 197.831 169.36 197.723C171.516 197.185 174.534 196.432 176.69 196.109C179.062 195.679 181.757 196.325 182.404 198.799C182.835 200.412 182.727 202.134 181.218 202.994C177.553 204.715 170.653 206.006 166.88 206.759C166.341 206.867 165.587 206.867 164.94 206.867Z" fill="#3F3C3D"/>
<path d="M193.292 206.867C189.196 206.867 186.608 204.285 187.147 199.122C188.225 189.978 188.333 172.228 187.471 167.387C186.824 163.837 190.381 161.793 193.723 161.793C199.006 161.793 204.935 163.299 209.571 165.881C210.756 166.526 211.511 167.494 211.942 168.785C212.805 171.582 210.972 174.164 207.953 174.379C206.768 174.487 205.69 174.057 204.504 173.841C201.916 173.304 199.437 172.443 196.957 172.443C196.742 176.208 196.526 179.973 196.418 183.846C198.467 183.953 200.299 184.061 202.132 184.169C204.504 184.276 208.924 185.244 208.169 188.472C207.414 191.376 204.612 191.591 202.348 191.591C200.299 191.484 197.604 191.376 196.526 191.376C196.311 193.635 196.203 195.787 195.987 198.153C196.742 197.938 197.281 197.831 197.712 197.723C199.868 197.185 202.887 196.432 205.043 196.109C207.414 195.679 210.11 196.325 210.756 198.799C211.188 200.412 211.08 202.134 209.571 202.994C205.905 204.715 199.006 206.006 195.233 206.759C194.586 206.867 193.939 206.867 193.292 206.867Z" fill="#3F3C3D"/>
<path d="M219.704 162.546C221.968 161.901 224.447 161.578 226.819 161.578C231.347 161.578 235.767 162.654 238.893 164.16C245.038 167.064 247.302 173.626 246.439 179.866C245.469 185.997 239.109 192.022 232.102 193.205C232.533 194.819 238.462 198.799 240.941 198.799C244.391 198.799 244.499 203.855 241.48 205.468C240.51 206.006 239.432 206.222 238.354 206.222C233.18 206.222 227.789 200.412 226.064 196.97C225.849 201.058 224.771 206.006 220.351 206.006C217.871 206.114 216.254 204.823 216.254 202.672C216.686 190.623 215.931 181.372 214.529 169.001C214.206 165.773 216.47 162.438 219.704 162.546ZM228.436 167.064C225.418 167.064 225.094 169.108 225.31 172.766C225.525 176.316 225.741 179.866 226.172 183.093C226.604 186.643 228.652 187.826 230.808 187.396C235.982 186.428 238.893 177.714 236.521 172.335C234.904 169.001 232.102 167.064 228.436 167.064Z" fill="#3F3C3D"/>
<path d="M256.249 206.867C252.153 206.867 249.566 204.285 250.105 199.122C251.183 189.978 251.291 172.228 250.428 167.387C249.781 163.837 253.339 161.793 256.681 161.793C261.963 161.793 267.892 163.299 272.528 165.881C273.714 166.526 274.468 167.494 274.9 168.785C275.762 171.582 273.929 174.164 270.911 174.379C269.725 174.487 268.647 174.057 267.461 173.841C264.874 173.304 262.394 172.443 259.915 172.443C259.699 176.208 259.484 179.973 259.376 183.846C261.424 183.953 263.257 184.061 265.089 184.169C267.461 184.276 271.881 185.244 271.126 188.472C270.372 191.376 267.569 191.591 265.305 191.591C263.257 191.484 260.562 191.376 259.484 191.376C259.268 193.635 259.16 195.787 258.945 198.153C259.699 197.938 260.238 197.831 260.669 197.723C262.826 197.185 265.844 196.432 268 196.109C270.372 195.679 273.067 196.325 273.714 198.799C274.145 200.412 274.037 202.134 272.528 202.994C268.863 204.715 261.963 206.006 258.19 206.759C257.543 206.867 256.896 206.867 256.249 206.867Z" fill="#3F3C3D"/>
</g>
<defs>
<clipPath id="clip0_105_39">
<rect width="305.3" height="240" fill="white"/>
</clipPath>
</defs>
</svg>
