<svg width="188" height="39" viewBox="0 0 188 39" fill="none" xmlns="http://www.w3.org/2000/svg">
<g clip-path="url(#clip0_605_1816)">
<path d="M5.03599 5.03226H9.11827C12.8473 5.03226 14.4566 6.24974 14.4566 8.72529C14.4566 10.8762 12.808 12.3371 9.55005 12.3371H5.07524V5.03226H5.03599ZM0.129395 29.2601H10.0996C15.3202 29.2601 20.5801 27.3122 20.5801 21.103C20.5801 17.41 18.0679 14.6098 14.6137 14.204V14.1228C17.4791 13.23 19.4025 11.0791 19.4025 7.87305C19.4025 2.67846 15.1239 0.689911 10.9239 0.689911H0.129395V29.2601ZM5.03599 16.6795H9.74631C13.7501 16.6795 15.595 17.7346 15.595 20.7378C15.595 24.512 12.0622 24.9584 9.55005 24.9584H5.03599V16.6795Z" fill="black"/>
<path d="M23.7595 0H28.4306V29.2601H23.7595V0Z" fill="black"/>
<path d="M36.2812 19.5609C36.2812 16.5172 38.3616 13.7575 41.7766 13.7575C45.2308 13.7575 47.272 16.5577 47.272 19.5609C47.272 22.6046 45.1916 25.3642 41.7766 25.3642C38.3616 25.4048 36.2812 22.6046 36.2812 19.5609ZM31.6101 19.5609C31.6101 25.6483 36.1242 29.7471 41.8158 29.7471C47.4682 29.7471 52.0215 25.6483 52.0215 19.5609C52.0215 13.4735 47.5075 9.3746 41.8158 9.3746C36.1242 9.41519 31.6101 13.4735 31.6101 19.5609Z" fill="black"/>
<path d="M58.8121 19.5609C58.8121 16.5172 60.8925 13.7575 64.3075 13.7575C67.7618 13.7575 69.8029 16.5577 69.8029 19.5609C69.8029 22.6046 67.7225 25.3642 64.3075 25.3642C60.8533 25.4048 58.8121 22.6046 58.8121 19.5609ZM54.1018 19.5609C54.1018 25.6483 58.6159 29.7471 64.3075 29.7471C69.9599 29.7471 74.5132 25.6483 74.5132 19.5609C74.5132 13.4735 69.9992 9.3746 64.3075 9.3746C58.6551 9.41519 54.1018 13.4735 54.1018 19.5609Z" fill="black"/>
<path d="M77.3789 9.90218H81.8144V12.9459H81.8929C82.7172 11.1197 84.5229 9.41519 87.6238 9.41519C90.5285 9.41519 92.4912 10.5921 93.4725 13.0271C94.8463 10.5515 96.8482 9.41519 99.6351 9.41519C104.62 9.41519 106.387 13.1082 106.387 17.7347V29.3007H101.716V18.3028C101.716 15.8678 101.009 13.7981 98.2221 13.7981C95.2781 13.7981 94.179 16.3142 94.179 18.7898V29.3007H89.5079V17.7347C89.5079 15.3403 88.5659 13.7575 86.2892 13.7575C83.1883 13.7575 82.0107 16.1113 82.0107 18.668V29.2601H77.3396V9.90218H77.3789Z" fill="black"/>
<path d="M125.777 19.5609C125.777 22.6046 123.697 25.3642 120.282 25.3642C116.828 25.3642 114.787 22.564 114.787 19.5609C114.787 16.5172 116.867 13.7576 120.282 13.7576C123.697 13.7576 125.777 16.5578 125.777 19.5609ZM110.233 29.2601H114.669V26.3382H114.747C116.121 28.692 118.594 29.7471 121.185 29.7471C126.955 29.7471 130.449 25.3236 130.449 19.5609C130.449 13.8387 126.72 9.37461 121.381 9.37461C117.848 9.37461 116.004 11.0791 115.022 12.3371H114.904V0H110.233V29.2601Z" fill="black"/>
<path d="M137.278 17.6535C137.632 14.8533 139.359 13.0676 142.107 13.0676C145.05 13.0676 146.817 14.8533 146.856 17.6535H137.278ZM151.566 21.2653V19.9261C151.566 13.1894 147.994 9.3746 142.774 9.3746C137.121 9.3746 132.568 13.4735 132.568 19.5609C132.568 25.6483 137.082 29.7471 142.774 29.7471C145.757 29.7471 148.505 28.6514 150.703 25.8512L147.327 23.2133C146.15 24.7149 144.619 25.8512 142.303 25.8512C139.673 25.8512 137.592 24.1061 137.278 21.2653H151.566Z" fill="black"/>
<path d="M154.628 9.90218H159.299V12.9865H159.378C160.398 10.7544 162.479 9.41519 164.912 9.41519C165.501 9.41519 166.051 9.53693 166.6 9.69926V14.3663C165.815 14.1634 165.069 14.001 164.324 14.001C159.927 14.001 159.299 17.8564 159.299 18.871V29.2601H154.628V9.90218Z" fill="black"/>
<path d="M177.12 13.7575C180.535 13.7575 182.655 16.1113 182.655 19.4391C182.655 22.6857 180.535 25.1207 177.081 25.1207C173.901 25.1207 171.585 22.564 171.585 19.5203C171.585 16.1113 173.823 13.7575 177.12 13.7575ZM182.655 9.90218V12.8241H182.576C181.202 10.4703 178.729 9.41519 176.139 9.41519C170.368 9.41519 166.875 13.8793 166.875 19.6014C166.875 25.0801 170.604 29.5442 176.217 29.5442C178.572 29.5442 180.967 28.6108 182.341 26.7034H182.419V28.1238C182.419 31.9792 181.006 34.6171 176.492 34.6171C173.862 34.6171 171.939 33.6025 170.054 31.8169L167.228 35.794C169.897 38.2289 173.038 39 176.531 39C183.832 39 187.129 34.5765 187.129 27.5557V9.90218H182.655Z" fill="black"/>
</g>
<defs>
<clipPath id="clip0_605_1816">
<rect width="187" height="39" fill="white" transform="translate(0.129395)"/>
</clipPath>
</defs>
</svg>
