<svg width="195" height="17" viewBox="0 0 195 17" fill="none" xmlns="http://www.w3.org/2000/svg">
<path d="M4.27205 16.8557H0L3.4452 0.321777H7.71725L4.27205 16.8557Z" fill="#2C1B14"/>
<path d="M12.954 5.19714L12.4717 7.31687H12.6784C13.5741 5.47977 14.7455 4.98517 16.537 4.98517C19.0176 4.98517 19.8444 6.18635 19.3621 8.73002L17.7084 16.8557H13.9187L15.4345 9.71923C15.6413 8.65937 15.4345 8.02345 14.2632 8.02345C12.6095 8.02345 12.0582 9.01265 11.7826 10.4258L10.4734 16.8557H6.82153L9.16427 5.2678H12.954V5.19714Z" fill="#2C1B14"/>
<path d="M27.6308 16.8555H21.9118L21.1538 5.19702H25.0124L25.2191 14.3119H25.2881L29.0778 5.19702H32.9364L27.6308 16.8555Z" fill="#2C1B14"/>
<path d="M42.7206 12.8988C42.3761 14.5946 41.6182 15.5838 40.5157 16.2197C39.4132 16.7143 38.0352 16.9263 36.3815 16.9263C31.9716 16.9263 31.2136 15.3011 32.0405 10.991C32.9363 6.5396 34.3143 5.05579 38.7931 5.05579C42.9962 5.05579 43.9609 6.25697 42.9962 10.991L42.9273 11.6269H35.6924C35.3479 13.6054 35.4857 14.2413 37.0016 14.2413C38.173 14.2413 38.862 14.1706 39.2065 12.8988H42.7206ZM39.7578 9.57787C40.1023 7.88209 39.551 7.74078 38.2419 7.74078C36.9327 7.74078 36.4504 8.02341 36.0369 9.57787H39.7578Z" fill="#2C1B14"/>
<path d="M52.0227 8.44737C52.0916 7.45817 51.3336 7.45817 50.7135 7.45817C48.7842 7.45817 48.7842 7.67014 48.5086 8.37672C48.4396 9.01263 48.3018 9.36592 50.3001 9.36592C54.1587 9.43658 55.8124 9.64855 55.1233 12.8988C54.4343 16.2904 51.8159 16.8556 48.7842 16.8556C45.7524 16.8556 43.2718 16.9263 44.0298 13.1108H47.7506C47.475 14.4533 48.4397 14.4533 49.3354 14.4533C50.9891 14.4533 51.2647 14.3826 51.5403 13.4641C51.747 12.4042 51.1958 12.4042 49.8866 12.4042C45.1323 12.4042 44.581 11.3443 45.0633 8.94198C45.8213 5.19712 48.2329 5.12646 51.4025 5.12646C53.4696 5.12646 56.4325 5.12646 55.8124 7.95277L55.7435 8.44737H52.0227Z" fill="#2C1B14"/>
<path d="M66.4235 7.95277H62.2204L61.1179 13.1108C61.049 13.8174 61.049 14.1 61.738 14.1C62.7027 14.1 62.8405 13.3934 63.0472 12.6162L63.2539 11.9803H66.2168L66.0101 12.9695C65.321 16.0784 64.0808 16.8556 61.1179 16.8556C58.7752 16.8556 56.9148 16.573 57.466 13.6054L58.6374 7.88211H57.2593L57.8794 5.0558H59.2575L59.7398 2.65344H63.5295L63.0472 4.98514H67.2504L66.4235 7.95277Z" fill="#2C1B14"/>
<path d="M78.6885 10.991C77.7238 15.7251 76.4836 16.9263 71.7981 16.9263C67.1815 16.9263 66.3547 15.5838 67.3882 10.991C68.3529 6.25697 69.5932 5.05579 74.2786 5.05579C78.9641 4.98513 79.6532 6.11565 78.6885 10.991ZM71.1091 10.991C70.6267 13.5347 70.7645 14.0293 72.4871 14.0293C74.1408 14.0293 74.4164 13.5347 75.0366 10.991C75.5189 8.44736 75.5189 7.95275 73.7274 7.95275C72.0048 7.95275 71.5914 8.44736 71.1091 10.991Z" fill="#2C1B14"/>
<path d="M86.8189 9.64855C87.0256 8.87132 87.1634 7.95277 86.1988 7.95277C85.0963 7.95277 84.614 8.87132 84.4073 9.78987L83.0292 16.8556H79.3083L81.6511 5.26778H85.1652L84.8207 6.96356H85.0274C85.7853 5.62107 86.8878 5.12646 88.2659 5.12646C90.8153 5.12646 90.6086 7.24619 90.1263 9.36592L89.9196 10.2845H86.5433L86.8189 9.64855Z" fill="#2C1B14"/>
<path d="M98.395 8.44737C98.4639 7.45817 97.7059 7.45817 97.0858 7.45817C95.1565 7.45817 95.1565 7.67014 94.8808 8.37672C94.8119 9.01263 94.6741 9.36592 96.6724 9.36592C100.531 9.43658 102.185 9.64855 101.496 12.8988C100.807 16.2904 98.1193 16.8556 95.1565 16.8556C92.1936 16.8556 89.6441 16.9263 90.4021 13.1108H94.1229C93.8473 14.4533 94.8119 14.4533 95.7077 14.4533C97.3614 14.4533 97.637 14.3826 97.9126 13.4641C98.1193 12.4042 97.5681 12.4042 96.2589 12.4042C91.5045 12.4042 90.9533 11.3443 91.4356 8.94198C92.1936 5.19712 94.6052 5.12646 97.7748 5.12646C99.8419 5.12646 102.805 5.12646 102.185 7.95277L102.116 8.44737H98.395Z" fill="#2C1B14"/>
<path d="M113.14 0.109741C117.206 0.109741 118.033 1.52289 117.275 5.69169L116.103 11.5563C115.345 15.4424 113.623 16.8556 109.695 16.8556H107.421C103.563 16.8556 102.529 15.4424 103.287 11.5563L104.459 5.69169C105.354 1.52289 106.801 0.109741 110.867 0.109741H113.14ZM110.591 1.80552C107.835 1.80552 107.077 2.5121 106.388 5.76235L105.216 11.6269C104.527 14.9478 105.492 15.2305 107.835 15.3718H110.04C112.383 15.3718 113.554 15.0185 114.243 11.6269L115.414 5.76235C116.103 2.5121 115.483 1.80552 112.796 1.80552H110.591Z" fill="#2C1B14"/>
<path d="M120.651 0.251099H122.305L120.995 6.7516C121.891 5.26779 123.614 5.12648 124.923 5.12648C128.85 5.12648 128.85 7.45818 128.092 11.0617C127.335 14.8066 126.301 16.997 122.511 16.997C120.926 16.997 119.548 16.7143 119.135 15.4425H119.066L118.79 16.8556H117.137L120.651 0.251099ZM124.303 6.39831C121.34 6.39831 120.858 7.59949 120.168 10.9204C119.411 14.6653 119.893 15.4425 122.442 15.4425C125.474 15.4425 125.819 14.1 126.508 10.9204C127.197 7.2462 127.059 6.39831 124.303 6.39831Z" fill="#2C1B14"/>
<path d="M140.289 8.23542H138.497L138.635 7.81147C138.842 6.61029 138.015 6.61029 136.292 6.61029C134.087 6.61029 133.122 6.61029 132.847 8.02345C132.502 10.1432 133.054 9.9312 134.707 10.0019C137.532 10.2138 140.289 9.71923 139.531 13.5347C138.842 16.785 136.706 16.9263 134.087 16.9263C131.607 16.9263 129.057 16.8557 129.677 14.2413L129.884 13.1815H131.676L131.469 14.1C131.262 15.1599 131.813 15.4425 134.432 15.4425C135.603 15.4425 137.257 15.7251 137.808 13.6054C138.359 11.4857 137.326 11.9096 135.259 11.6976C132.778 11.4857 130.366 11.7683 131.055 8.44739C131.744 5.12648 133.605 4.98517 136.637 4.98517C138.566 4.98517 141.046 5.05583 140.495 7.67016L140.289 8.23542Z" fill="#2C1B14"/>
<path d="M151.451 13.2521L151.382 13.6054C150.762 16.6437 148.419 16.8557 145.87 16.8557C141.46 16.8557 141.115 15.3012 142.011 10.9204C142.976 6.04503 144.285 4.98517 148.35 4.98517C152.002 4.98517 152.967 5.90372 152.071 10.1432L151.864 11.3444H143.665C142.907 14.9479 143.044 15.5132 146.145 15.5132C148.488 15.5132 149.315 15.3012 149.59 13.6761L149.659 13.3228L151.451 13.2521ZM150.348 9.9312C150.968 6.61029 150.624 6.39832 148.006 6.39832C144.974 6.39832 144.629 7.17556 143.94 9.9312H150.348Z" fill="#2C1B14"/>
<path d="M157.17 5.19714L156.826 6.61029C157.721 5.2678 159.099 4.98517 160.34 4.98517C162.545 4.98517 163.303 6.04503 162.82 8.23542L162.614 9.01265H161.029L161.235 8.23542C161.511 6.82227 161.167 6.32766 159.789 6.32766C157.721 6.32766 156.757 7.31687 156.412 9.4366L154.965 16.6437H153.312L155.654 5.05583H157.239L157.17 5.19714Z" fill="#2C1B14"/>
<path d="M168.057 16.8556H165.715L164.336 5.26776H165.99L167.093 15.5131L172.398 5.26776H174.259L168.057 16.8556Z" fill="#2C1B14"/>
<path d="M183.492 13.2521L183.423 13.6054C182.803 16.6437 180.46 16.8557 177.91 16.8557C173.5 16.8557 173.156 15.3012 174.052 10.9204C175.016 6.04503 176.326 4.98517 180.391 4.98517C184.043 4.98517 185.007 5.90372 184.181 10.1432L183.974 11.3444H175.774C175.016 14.9479 175.154 15.5132 178.255 15.5132C180.598 15.5132 181.424 15.3012 181.7 13.6761L181.769 13.3228L183.492 13.2521ZM182.458 9.9312C183.078 6.61029 182.734 6.39832 180.115 6.39832C177.083 6.39832 176.739 7.17556 176.05 9.9312H182.458Z" fill="#2C1B14"/>
<path d="M189.211 5.19714L188.866 6.61029C189.762 5.2678 191.14 4.98517 192.38 4.98517C194.585 4.98517 195.343 6.04503 194.861 8.23542L194.654 9.01265H193.069L193.276 8.23542C193.551 6.82227 193.207 6.32766 191.829 6.32766C189.762 6.32766 188.797 7.31687 188.453 9.4366L187.006 16.6437H185.214L187.557 5.05583H189.211V5.19714Z" fill="#2C1B14"/>
</svg>
