<svg width="188" height="36" viewBox="0 0 188 36" fill="none" xmlns="http://www.w3.org/2000/svg">
<path d="M83.7835 31.3226V24.3238C83.7835 20.997 82.2834 18.8314 77.1896 18.8314C72.6895 18.8314 70.1269 20.4007 69.3769 23.5078L73.7207 23.8844C74.0332 22.5976 74.9083 22.0013 76.6583 22.0013C78.3146 22.0013 79.0646 22.7545 79.1271 23.9472C79.1271 24.1041 79.1271 24.5435 79.1271 24.7004C78.4396 24.7004 77.8458 24.7632 77.2521 24.8573C71.9394 25.3909 68.8456 27.117 68.8456 30.5066C68.8456 33.0802 70.7207 34.7122 73.5645 34.7122C76.252 34.7122 77.8458 33.8962 79.1896 32.5152C79.1896 33.3312 79.2521 34.1786 79.4084 34.4611H83.971C83.7835 33.7078 83.7835 32.2014 83.7835 31.3226ZM79.1271 29.6592C78.4396 30.6321 77.3146 31.5423 75.752 31.5423C74.5645 31.5423 73.8145 31.0088 73.8145 29.8789C73.8145 28.4352 75.1583 27.5564 77.5021 27.0856C78.0333 27.0229 78.5646 26.9287 79.1583 26.9287V29.6592H79.1271ZM58.1891 18.957H60.0017L60.3142 14.2806H64.5955V18.957H67.7518V22.1896H64.5955V28.8118C64.5955 30.0044 65.1268 30.6949 66.2518 30.8518C66.8456 30.9146 67.4393 30.9146 68.0643 30.8518V34.3042C67.3143 34.3669 66.2518 34.4611 65.283 34.4611C61.8455 34.4611 59.9704 32.7977 59.9704 29.5651V22.1896H58.1266V18.957M85.721 18.957H90.3149V22.3465C91.0024 20.5262 92.8774 18.8942 95.1275 18.8942C95.565 18.8942 95.94 18.8942 96.2525 18.957V22.7859C95.94 22.7232 95.2837 22.7232 94.9087 22.7232C93.0962 22.7232 91.5336 23.6333 90.7211 25.2967V34.3355H85.846V18.957H85.721ZM40.4387 28.9687L44.5013 27.3995C45.3138 29.4395 46.6889 30.7263 49.5327 30.7263C51.564 30.7263 52.9078 29.9103 52.9078 28.4666C52.9078 26.5207 50.6577 26.1441 48.0951 25.4536C44.8763 24.7004 41.2825 23.5705 41.2825 18.8942C41.2825 15.3477 44.2826 12.8055 49.3139 12.8055C53.6578 12.8055 56.2203 14.7514 57.4079 18.0154L53.1265 19.365C52.3765 17.5447 51.0327 16.7914 49.1577 16.7914C47.4389 16.7914 46.3139 17.5447 46.3139 18.7373C46.3139 20.6204 48.3452 20.9342 51.189 21.6875C54.6265 22.5035 57.8766 23.7902 57.8766 28.1527C57.8766 31.8561 55.1891 34.5552 49.6264 34.5552C44.0638 34.5552 41.6262 32.1386 40.4387 28.9687ZM98.2525 16.9797H92.9399V13.0566H108.378V16.9797H103.065V34.3042H98.2525V16.9797ZM105.065 18.957H109.628V22.3465C110.315 20.5262 112.19 18.8942 114.44 18.8942C114.878 18.8942 115.347 18.8942 115.565 18.957V22.7859C115.253 22.7232 114.597 22.7232 114.222 22.7232C112.409 22.7232 110.847 23.6333 110.034 25.2967V34.3355H105.221V18.957H105.065ZM133.66 18.7373C131.253 18.7373 129.91 20.0241 129.003 21.3736V13.088H124.284V34.3355H127.222L127.909 32.0758C129.097 33.6451 130.472 34.5552 132.941 34.5552C136.535 34.5552 139.097 31.9189 139.097 26.6463C139.066 21.3736 137.191 18.7373 133.66 18.7373ZM131.628 31.9189C130.066 31.9189 129.066 30.4752 129.066 28.3097V24.3238C129.441 22.8173 130.253 22.0641 131.628 22.0641C133.503 22.0641 134.191 23.6333 134.191 26.8973C134.191 30.2555 133.503 31.9189 131.628 31.9189ZM140.472 29.6592V18.957H145.285V29.3454C145.285 30.7891 145.879 31.3854 147.16 31.3854C148.285 31.3854 149.097 30.6321 149.629 29.5651V18.957H154.441V34.3355H149.785V32.0758C148.722 33.7392 147.097 34.4925 144.91 34.4925C142.347 34.5552 140.472 33.0488 140.472 29.6592ZM156.441 18.957H161.004V21.5305C161.91 20.2438 163.317 18.7373 165.942 18.7373C169.098 18.7373 170.379 20.6204 170.379 23.5705V34.3355H165.567V23.6961C165.567 22.7232 165.035 22.0327 163.91 22.0327C162.629 22.0327 161.816 22.9428 161.223 23.853V34.3355H156.41L156.441 18.957ZM171.535 26.866C171.535 21.9071 175.129 18.7373 179.411 18.7373C184.223 18.7373 186.973 21.9071 187.13 26.6463C187.13 26.9601 187.13 27.2426 187.13 27.5564H176.567C176.629 30.2555 178.067 31.4795 179.942 31.4795C181.504 31.4795 182.504 30.7263 183.004 29.2198L186.973 29.7534C185.911 32.7035 183.442 34.5866 179.473 34.5866C174.817 34.5552 171.535 31.5423 171.535 26.866ZM182.317 25.0456C182.161 23.0056 181.254 21.7188 179.473 21.7188C177.973 21.7188 176.692 22.9115 176.536 25.0456H182.317ZM117.534 13.088H122.347V17.0111H117.534V13.088ZM117.534 18.957H122.347V34.3355H117.534V18.957Z" fill="black"/>
<path d="M18.5942 0L14.6253 14.029H0L12.0003 21.6869L22.6568 13.8721L18.5942 0Z" fill="black"/>
<path d="M22.8756 14.0291L7.18774 35.4963L18.5943 26.5202L30.157 35.4963L25.1882 21.7811L37.2822 14.0291H22.8756Z" fill="black"/>
</svg>
