<svg width="195" height="28" viewBox="0 0 195 28" fill="none" xmlns="http://www.w3.org/2000/svg">
<g clip-path="url(#clip0_605_1857)">
<path fill-rule="evenodd" clip-rule="evenodd" d="M34.4796 11.42V22.29H39.6989V13.6838C39.7793 13.2622 39.8598 12.8498 40.11 12.5106C40.4317 11.9241 41.0037 11.6766 41.6561 11.7591C42.5498 11.8416 43.1218 12.3457 43.2827 13.4272V22.2075H48.502V17.1941C48.502 12.9322 48.502 12.0982 48.4216 11.6766C48.2607 10.1735 47.7691 9.00033 46.8754 8.16628C46.1426 7.41473 45.2489 6.99313 44.1853 6.82815C43.7742 6.74566 42.6392 6.82815 42.3085 6.91064C41.3344 7.1581 40.5926 7.49722 39.9491 8.24877L39.538 8.57872V0.549918H34.3187V11.42H34.4796ZM89.8989 0.714894C89.7381 1.04484 84.4383 14.1696 84.4383 14.1696H90.6318L93.4023 7.3964C94.9484 3.63863 96.1728 0.540753 96.1728 0.540753H89.9794L89.8989 0.705728V0.714894ZM23.0668 6.90147C21.9229 7.06645 21.0291 7.40557 20.1354 7.99214C18.3391 9.1653 17.204 11.1725 16.8734 13.5097C16.7125 14.6003 16.7929 15.9293 17.0342 16.9375C17.6866 19.5313 19.3936 21.5385 21.6011 22.29C22.4144 22.5375 22.7451 22.62 23.7192 22.62C24.4521 22.62 24.6934 22.62 24.9436 22.5375C26.0071 22.29 26.74 21.8684 27.3924 21.1993L27.7141 20.8694V22.2075H32.7636V7.14894H27.7141V8.48707L27.4728 8.23961C26.9009 7.57054 26.0876 7.14894 25.0241 6.90147C24.7023 6.81899 24.5325 6.81899 23.8801 6.81899C23.469 6.90147 23.1473 6.90147 23.0668 6.90147ZM56.322 6.90147C54.9368 7.06645 53.4711 7.73552 52.4075 8.56956C50.3699 10.3293 49.3063 13.0789 49.7174 15.9293C50.1286 19.1097 52.3271 21.5293 55.4194 22.3633C56.0718 22.5283 56.7242 22.6108 57.5375 22.6108C59.0032 22.6108 60.0667 22.3633 61.2017 21.7768C63.4807 20.6036 64.9553 18.5139 65.2771 15.9293C65.3575 15.2602 65.3575 14.1696 65.2771 13.5921C65.1162 12.3365 64.6246 11.0809 63.8918 10.0818C63.57 9.66023 62.9176 8.90867 62.5065 8.57872C61.3626 7.66219 60.0577 7.07561 58.592 6.91064C58.0201 6.82815 56.8761 6.82815 56.3131 6.91064L56.322 6.90147ZM72.9451 6.90147C71.5599 7.06645 70.1746 7.65303 69.1111 8.56956C68.7 8.89951 67.9671 9.66023 67.7258 10.0727C66.993 11.0717 66.5819 12.3273 66.3406 13.583C66.2601 14.1696 66.2601 15.3427 66.3406 15.9201C66.8321 19.2655 69.1915 21.8592 72.4536 22.5191C73.106 22.6841 73.4277 22.6841 74.1695 22.6841C75.5548 22.6841 76.7792 22.4367 77.9231 21.7676C80.935 20.182 82.5705 16.6717 81.8376 13.0789C81.1852 9.73355 78.5756 7.31391 75.2331 6.89231C74.6611 6.80982 73.5171 6.80982 72.9541 6.89231L72.9451 6.90147ZM0 7.24059C0 7.24059 1.38526 10.6684 3.1012 14.8478C4.81713 19.0272 6.20239 22.455 6.20239 22.455C6.20239 22.455 5.71085 23.7106 5.05843 25.2137C4.40602 26.7169 3.91448 27.89 3.91448 27.9725C3.91448 28.055 5.13887 27.9725 6.685 27.9725H9.45552L13.6113 17.689C15.8903 12.0065 17.7671 7.40556 17.7671 7.32308C17.7671 7.32308 17.1951 7.24059 14.9966 7.32308H12.226L10.5101 11.6674C9.77726 14.0046 9.04441 16.0118 9.04441 16.0118C9.04441 16.0118 8.31156 14.0046 7.32847 11.6674L5.70191 7.32308H2.85096C1.30483 7.24059 0 7.24059 0 7.24059ZM25.596 11.7499C26.6596 11.9974 27.4728 12.8406 27.7946 13.9221C27.875 14.3437 27.875 15.0953 27.7946 15.5077C27.5533 16.5984 26.7311 17.4324 25.6765 17.6799C25.2654 17.7624 24.5325 17.7624 24.1303 17.6799C23.2366 17.4324 22.4144 16.7633 22.0927 15.9201C21.6816 15.0036 21.8514 13.8304 22.334 12.9964C23.0668 11.9057 24.2912 11.4933 25.596 11.7408V11.7499ZM58.1184 11.8324C59.2623 11.9974 60.1561 12.9231 60.3974 14.0871C60.4778 14.5087 60.4778 15.1777 60.3974 15.5902C60.1561 16.6809 59.3338 17.4324 58.3597 17.7624C58.0379 17.8448 57.1353 17.8448 56.8136 17.7624C56.0003 17.5149 55.3479 16.9283 54.9368 16.1768C54.6954 15.6727 54.6954 15.4252 54.6954 14.8386C54.6954 14.3345 54.7759 14.0871 54.9368 13.6655C55.1781 13.1614 55.5087 12.6664 56.0003 12.3273C56.4918 11.8232 57.3051 11.6583 58.1184 11.8232V11.8324ZM74.6611 11.8324C75.6352 11.9974 76.4574 12.6664 76.7792 13.5921C76.9401 14.0137 77.0205 14.2612 77.0205 14.7653C77.0205 15.3519 76.9401 15.5993 76.7792 16.1034C76.4574 16.855 75.7157 17.4416 74.9024 17.689C74.5806 17.7715 73.678 17.7715 73.3562 17.689C72.3821 17.4416 71.5599 16.5984 71.3186 15.5169C71.2381 15.0953 71.2381 14.3437 71.3186 13.9313C71.6403 12.5931 72.7843 11.6766 74.0891 11.6766C74.25 11.7591 74.5002 11.7591 74.6611 11.8416V11.8324ZM85.7432 15.5077C84.197 15.6727 83.0531 16.8458 82.7313 18.3489C82.6509 18.7705 82.6509 19.5221 82.7313 19.9345C83.0531 21.2727 84.0362 22.1892 85.341 22.5283C85.5019 22.5283 85.8325 22.6108 86.0738 22.6108C87.048 22.6108 87.8702 22.2809 88.5226 21.6118C89.2555 20.8602 89.4968 20.1087 89.4968 19.1005C89.4968 17.8448 88.9248 16.7633 87.9506 16.1768C87.2982 15.5902 86.4045 15.4252 85.7521 15.5077H85.7432ZM110.848 0.146645C108.98 0.733224 108.113 2.95123 109.123 4.57349C109.409 5.01342 109.99 5.60917 110.419 5.75581C110.848 5.90246 110.848 5.90246 111.715 5.90246C112.43 5.90246 112.581 5.90246 113.01 5.75581C113.582 5.46252 114.163 4.86678 114.449 4.2802C115.164 2.80458 114.449 1.03568 113.01 0.29329C112.581 0 112.438 0 111.858 0C111.277 0 111.143 0 110.848 0.146645ZM103.081 0.29329C100.632 0.733224 99.0506 2.35548 98.3356 5.01342C98.1926 5.45336 98.1926 5.90246 98.1926 6.48903V7.52471H96.1818V11.9516H98.1926V22.5741H103.662V11.9516H107.398V7.52471H103.662V7.08478C103.805 6.0491 104.234 5.31588 105.101 5.16923C105.673 5.02259 106.54 5.02259 107.112 5.31588C107.398 5.46252 107.541 5.46252 107.541 5.46252V0.733224L107.112 0.586579C106.54 0.29329 105.816 0.29329 104.806 0.29329C104.091 0.146645 103.51 0.29329 103.081 0.29329ZM124.942 7.22226C123.789 7.51555 122.931 8.11129 122.35 8.84452L122.064 9.28445V7.51555H116.594V22.565H122.064V13.8579C122.207 13.2714 122.493 12.6756 122.779 12.3823C123.494 11.7957 124.79 11.9424 125.371 12.6756C125.657 13.0667 125.8 14.8356 125.8 17.9823V22.4092H131.269V17.3957C131.269 12.089 131.269 11.4933 130.983 10.4668C130.697 9.57774 130.411 8.84452 129.687 8.25794C129.115 7.67136 128.534 7.22226 127.676 7.07561C126.961 7.07561 125.522 7.07561 124.942 7.22226ZM138.606 7.07561C137.74 7.22226 136.453 7.66219 135.729 8.25794C134.147 9.44026 133.137 11.2092 132.708 13.418C132.565 14.307 132.565 15.9293 132.708 16.8092C132.994 18.1381 133.423 19.4671 134.147 20.347C135.157 21.6759 136.453 22.5558 138.035 22.8583C138.901 23.0049 140.34 23.0049 141.055 22.7116C141.922 22.4183 142.494 22.125 143.209 21.5293L143.781 20.9427V22.4183H149.251V7.37807H143.781V8.85368L143.352 8.70704C142.637 7.97381 141.627 7.37807 140.474 7.23142C140.045 7.08478 139.035 7.08478 138.606 7.08478V7.07561ZM159.466 7.22226C158.456 7.3689 157.455 8.11129 156.874 8.84452L156.588 9.13781V7.3689H151.119V22.4183H156.588V18.1381C156.588 15.0891 156.683 13.3202 156.874 12.8314C157.16 12.2448 157.741 11.9424 158.313 11.9424C158.885 11.9424 159.18 12.089 159.609 12.3823C160.181 12.9689 160.181 12.8223 160.181 17.8448V22.2717H165.65V16.8092C165.65 13.1675 165.603 11.1511 165.507 10.7601C165.364 10.4668 165.221 9.87103 165.078 9.4311C164.792 8.84452 164.649 8.69787 164.211 8.24877C163.639 7.66219 163.202 7.35974 162.63 7.06645C161.62 7.06645 160.476 6.9198 159.466 7.21309V7.22226ZM173.703 7.22226C171.254 7.66219 169.386 8.84452 168.233 10.9067C167.947 11.4933 167.661 12.2357 167.366 12.9689C167.223 13.7021 167.223 13.8579 167.223 15.0311C167.223 16.3601 167.223 16.8 167.652 17.8357C168.519 20.347 170.53 22.2625 173.265 22.8491C173.694 22.9957 174.132 22.9957 175.133 22.9957C176.572 22.9957 177.144 22.8491 178.153 22.4092L178.725 22.1159V17.1025L178.296 17.3957C177.581 17.8357 177.144 17.9823 176.286 17.9823C175.428 17.9823 174.99 17.9823 174.418 17.689C173.846 17.3957 173.408 16.9558 173.122 16.3601C173.026 16.0668 172.979 15.6727 172.979 15.1777C172.979 14.5912 172.979 14.4445 173.122 13.9954C173.551 12.8131 174.561 12.2265 176 12.0799C177.009 12.0799 177.438 12.0799 178.877 12.8131V7.79967L178.448 7.65303C176.866 7.06645 175.142 6.9198 173.703 7.21309V7.22226ZM186.072 7.22226C181.898 7.95548 179.315 11.6491 179.601 15.9293C179.744 17.4049 180.173 18.7339 180.897 19.7604C181.907 21.3827 183.489 22.4183 185.5 22.8583C186.367 23.0049 188.664 23.0049 189.673 22.8583C191.112 22.565 192.408 21.8226 193.409 20.7961C193.838 20.3561 194.562 19.3205 194.562 19.3205C194.562 19.3205 193.552 18.8805 192.256 18.4314L189.95 17.5424L189.665 17.8357C189.236 18.2756 188.95 18.4223 188.369 18.5689C186.787 19.0088 185.205 18.129 184.919 16.6534V16.3601H194.991V15.0311C194.991 14.1421 194.991 13.5555 194.848 13.2622C194.562 11.4933 193.838 10.311 192.837 9.12864C191.827 8.09296 190.683 7.50638 189.101 7.21309C188.529 7.06645 186.796 7.06645 186.081 7.21309L186.072 7.22226ZM108.971 15.0403V22.565H114.44V7.52471H108.971V15.0494V15.0403ZM188.226 11.3558C188.655 11.5025 188.798 11.6491 189.236 11.9424C189.522 12.2357 189.808 12.529 189.808 12.9781V13.2714H187.359C184.624 13.2714 184.767 13.2714 185.053 12.6848C185.482 11.6491 186.778 11.0625 188.217 11.3558H188.226ZM141.761 12.089C142.476 12.2357 143.343 12.9781 143.629 13.7113C144.344 15.3336 143.629 17.2491 141.904 17.8448C141.332 17.9915 140.465 17.9915 139.893 17.8448C139.027 17.5516 138.169 16.8092 138.026 15.9293C137.883 15.4894 137.883 15.3427 137.883 14.8936C137.883 14.307 137.883 14.1604 138.169 13.7113C138.741 12.3823 140.179 11.7957 141.761 12.089Z" fill="black"/>
</g>
<defs>
<clipPath id="clip0_605_1857">
<rect width="195" height="28" fill="white"/>
</clipPath>
</defs>
</svg>
